<?xml version="1.0" standalone="no"?>
<!DOCTYPE svg PUBLIC "-//W3C//DTD SVG 20010904//EN"
 "http://www.w3.org/TR/2001/REC-SVG-20010904/DTD/svg10.dtd">
<svg version="1.0" xmlns="http://www.w3.org/2000/svg"
 width="1300.000000pt" height="1300.000000pt" viewBox="0 0 1300.000000 1300.000000"
 preserveAspectRatio="xMidYMid meet">
<metadata>
Created by potrace 1.16, written by Peter Selinger 2001-2019
</metadata>
<g transform="translate(0.000000,1300.000000) scale(0.100000,-0.100000)"
fill="#000000" stroke="none">
<path d="M0 6500 l0 -6500 6500 0 6500 0 0 6500 0 6500 -6500 0 -6500 0 0
-6500z m5808 3396 c507 -54 953 -219 1353 -500 223 -157 513 -441 681 -667
234 -315 389 -648 477 -1024 69 -296 64 -178 71 -1720 l5 -1400 28 -95 c16
-52 35 -117 42 -145 21 -72 91 -210 146 -285 88 -121 223 -212 361 -245 96
-22 261 -20 344 6 223 68 470 280 659 566 75 112 195 316 199 338 2 5 21 48
44 95 22 47 53 115 69 152 15 38 31 68 36 68 4 0 5 -21 3 -47 -3 -27 -8 -95
-11 -153 -12 -216 -56 -491 -106 -665 -145 -501 -387 -826 -770 -1033 -85 -46
-266 -112 -306 -112 -8 0 -24 -5 -36 -12 -53 -29 -355 -16 -527 22 -176 39
-390 128 -464 193 -11 9 -23 17 -28 17 -4 0 -47 33 -95 73 -97 81 -174 165
-249 272 -48 68 -154 248 -154 262 0 3 -20 56 -44 117 -24 61 -56 164 -72 228
-17 69 -32 112 -36 105 -5 -7 -7 0 -7 18 1 17 -4 104 -11 195 -6 91 -11 204
-9 251 l4 86 -38 -31 c-21 -17 -58 -47 -81 -66 -85 -71 -272 -198 -376 -255
-245 -135 -482 -227 -730 -284 -267 -60 -306 -64 -670 -64 -363 0 -408 4 -655
63 -66 16 -135 31 -152 35 -18 4 -79 24 -135 46 -57 21 -108 39 -114 39 -13 0
-252 115 -334 161 -331 182 -691 506 -951 853 -143 192 -282 451 -366 686 -50
137 -51 140 -92 320 -61 259 -64 297 -64 665 0 273 3 360 17 440 45 269 119
523 212 728 24 53 44 99 44 102 0 21 167 292 249 405 153 210 399 465 597 618
64 49 195 142 200 142 3 0 31 17 62 38 31 21 100 61 152 89 329 174 675 273
1110 316 94 10 400 5 518 -7z"/>
<path d="M5330 8914 c-168 -20 -354 -64 -479 -112 -51 -21 -105 -42 -120 -47
-46 -18 -214 -114 -281 -161 -132 -93 -224 -174 -339 -299 -68 -74 -211 -264
-211 -279 0 -4 -14 -27 -30 -51 -41 -59 -134 -268 -155 -346 -83 -308 -89
-357 -82 -656 5 -244 15 -307 82 -528 33 -108 113 -289 155 -350 16 -24 30
-47 30 -51 0 -3 32 -52 72 -108 45 -65 124 -153 218 -246 137 -136 185 -173
371 -293 63 -40 259 -132 305 -143 16 -4 61 -17 99 -30 173 -56 260 -67 550
-67 290 0 377 11 550 67 39 13 83 26 99 30 16 4 78 29 137 56 296 136 561 357
761 634 122 170 207 345 267 552 59 200 71 294 71 536 0 269 -10 337 -88 608
-21 74 -100 251 -138 311 -14 22 -34 56 -45 75 -70 125 -283 368 -414 473
-149 119 -323 230 -416 266 -15 6 -69 26 -120 47 -89 34 -240 74 -374 99 -61
11 -411 21 -475 13z"/>
</g>
</svg>
